<svg width="120" height="120" viewBox="0 0 120 120" fill="none" xmlns="http://www.w3.org/2000/svg">
<circle cx="60" cy="60" r="58.5" stroke="white" stroke-width="3"/>
<g transform="translate(4,8)">
<g filter="url(#filter0_d)">
<circle cx="56" cy="52" r="52" fill="white"/>
</g>
<defs>
<filter id="filter0_d" x="0" y="0" width="112" height="112" filterUnits="userSpaceOnUse" color-interpolation-filters="sRGB">
<feFlood flood-opacity="0" result="BackgroundImageFix"/>
<feColorMatrix in="SourceAlpha" type="matrix" values="0 0 0 0 0 0 0 0 0 0 0 0 0 0 0 0 0 0 127 0"/>
<feOffset dy="4"/>
<feGaussianBlur stdDeviation="2"/>
<feColorMatrix type="matrix" values="0 0 0 0 0 0 0 0 0 0 0 0 0 0 0 0 0 0 0.25 0"/>
<feBlend mode="normal" in2="BackgroundImageFix" result="effect1_dropShadow"/>
<feBlend mode="normal" in="SourceGraphic" in2="effect1_dropShadow" result="shape"/>
</filter>
</defs>
</g>
<g transform="translate(22,25)">
<path d="M19.8582 54.5723C24.1926 53.5812 26.933 50.7994 29.7092 47.8438C29.3331 47.7395 29.0465 47.6525 28.7599 47.583C24.9449 46.6441 21.4343 45.0446 18.2104 42.8713C16.2222 41.5326 14.5923 39.8461 13.3565 37.7945C13.1953 37.5337 13.0699 37.2555 12.9445 36.9774C12.9087 36.9078 12.9087 36.8209 12.8729 36.5775C14.0908 36.9426 15.2371 37.2903 16.3655 37.638C16.4013 37.6033 16.4193 37.5859 16.4551 37.5511C16.3297 37.4468 16.2222 37.3425 16.0969 37.2555C14.6282 36.3341 13.1953 35.3778 11.7087 34.5085C10.0071 33.5001 8.21603 32.6308 6.56822 31.5876C4.36517 30.1793 2.80692 28.1973 1.67852 25.9023C1.62479 25.798 1.60688 25.6937 1.58897 25.5894C1.57106 25.5372 1.58897 25.4676 1.58897 25.3112C3.41589 26.0762 5.11743 27.1541 7.23093 26.9629C3.07558 24.6505 0.496402 21.4167 0.675512 16.5485C2.4487 18.4436 4.18606 20.3213 5.92343 22.199C5.95925 22.1643 6.01298 22.1121 6.0488 22.0773C5.33237 20.7212 4.49055 19.3998 3.95322 17.9742C3.41589 16.5485 3.05767 15.0011 2.87856 13.4885C2.69945 11.9759 2.84274 10.4285 2.84274 8.89854C2.93229 8.88115 3.02185 8.88116 3.09349 8.86377C3.93531 10.7067 4.77712 12.5497 5.61894 14.41C5.70849 14.41 5.79805 14.3926 5.8876 14.3926C5.85178 11.0371 6.22791 7.75105 7.82199 4.74322C7.89363 4.74322 7.96528 4.74323 8.03692 4.76061C8.03692 5.50822 8.07274 6.23844 8.03692 6.98605C7.8399 10.6546 9.29069 13.7841 11.4579 16.6354C12.9087 18.5305 14.6998 20.1127 16.6342 21.5384C19.1775 23.4161 22.0254 24.7896 24.8732 26.1457C27.5241 27.3975 29.8525 29.1014 32.0376 31.0139C33.363 32.1788 34.7422 33.2741 36.1034 34.4042C36.4795 34.7171 36.8557 35.0649 37.2855 35.4474C37.9841 33.8826 38.6289 32.4222 39.2737 30.9443C40.8319 27.4323 43.1782 24.4766 46.0798 21.9209C48.3903 19.8867 50.7367 17.922 53.0472 15.9052C56.1816 13.1582 58.1339 9.75047 58.7608 5.68208C58.9936 4.23902 58.8862 2.72642 58.9399 1.26597C58.9399 1.02256 58.9399 0.761771 59.0295 0.500977C60.1579 3.0046 60.4803 5.64731 60.7489 8.39434C61.8594 6.20367 62.952 4.013 64.0625 1.80495C64.152 1.82233 64.2416 1.83972 64.3132 1.8571C64.1878 4.09993 64.1699 6.34276 63.9012 8.5682C63.6326 10.7763 63.1132 12.9495 62.7012 15.0533C63.2565 14.2187 63.9012 13.2625 64.6535 12.1672C64.7072 14.3057 64.6356 16.2355 63.7042 18.0611C62.7908 19.8693 61.3221 21.2254 59.728 22.5641C60.6056 22.738 61.3042 22.4424 61.9848 22.1121C62.6475 21.7991 63.2565 21.4167 64.0266 20.982C63.955 21.3123 63.9192 21.5384 63.8475 21.747C62.8803 24.2854 61.3758 26.4761 59.119 28.093C57.7399 29.1014 56.2712 29.9881 54.9099 30.9965C54.0502 31.6398 53.4412 32.0397 53.4054 32.9264C53.9786 32.7351 54.5338 32.5612 55.1965 32.3526C54.086 36.0385 51.1486 38.2987 48.5874 40.9414C48.8381 41.0457 49.0351 41.1153 49.2322 41.2022C50.5038 41.7064 51.5785 42.4714 52.3129 43.6189C52.8681 44.4708 52.9935 45.3749 52.7606 46.3659C52.689 46.6615 52.8681 47.0614 53.0651 47.3222C53.6741 48.2263 53.7636 49.1477 53.2263 50.0866C52.7069 51.0081 51.8472 51.4601 50.7188 51.5297C51.6143 49.9649 51.5785 49.6172 50.3606 48.7826C50.2352 49.4259 50.1098 50.0344 49.9844 50.6777C49.1784 50.0344 48.4799 49.2694 47.6023 48.8174C46.7067 48.3654 45.65 48.2437 44.5753 47.9481C44.629 48.1741 44.629 48.3132 44.6828 48.4349C45.4709 50.3648 46.2052 52.3294 47.1008 54.2245C47.4232 54.92 48.068 55.5111 48.659 56.0327C49.2143 56.5195 49.6083 56.3457 49.8232 55.6328C49.9665 55.1286 50.0202 54.607 50.1098 54.1028C50.1994 53.6508 50.4501 53.4595 50.7725 53.5986C50.8442 54.0159 50.9337 54.3462 50.9516 54.6766C50.9695 55.0243 50.9695 55.3894 50.8979 55.7198C50.8262 56.0153 50.6292 56.2935 50.4859 56.5717C50.5218 56.6238 50.5755 56.6586 50.6113 56.7108C51.0949 56.3978 51.5964 56.0849 52.0621 55.7545C52.2949 55.5807 52.474 55.3546 52.689 55.1634C53.5308 54.4158 53.9427 54.4679 54.5338 55.459C54.2114 55.4242 53.9248 55.372 53.6203 55.3373C53.5666 56.6238 52.1696 56.6064 51.5964 57.4758C52.277 57.441 52.886 57.3888 53.495 57.3888C54.4263 57.3888 54.8025 57.8061 54.6234 58.7276C54.3547 58.1017 53.9069 58.1886 53.4771 58.3625C52.5636 58.7276 51.6322 58.6059 50.7009 58.4842C49.6799 58.3451 48.7665 58.4842 47.8888 59.0753C47.3157 59.4752 46.7246 59.8577 45.9007 59.6838C45.7216 59.649 45.3992 60.2228 45.1664 60.501C44.7902 60.0142 44.8082 59.5447 45.435 59.1622C45.8291 58.9188 46.2948 58.7971 46.7246 58.6233C46.9933 58.5189 47.2799 58.432 47.5127 58.2581C48.0321 57.8756 48.0321 57.6322 47.5306 57.2497C46.2948 56.2761 45.0589 55.3199 43.8231 54.3462C43.7156 54.2593 43.5902 54.1898 43.4827 54.1724C41.8528 54.0333 40.9573 52.9901 40.2767 51.7209C40.1334 51.4427 40.0259 51.0602 39.6319 51.3036C39.4169 51.4427 39.1841 51.86 39.2558 52.0686C39.6319 53.4422 40.4558 54.5201 41.7275 55.2155C42.2827 55.1286 42.3902 53.8073 43.1783 54.607C43.1066 54.9026 43.0529 55.0765 43.0171 55.2503C43.232 55.2851 43.4648 55.372 43.6798 55.3546C44.038 55.3546 44.3962 55.2851 44.7544 55.2503C44.7723 55.3199 44.7902 55.4068 44.8082 55.4763C44.5574 55.598 44.3066 55.7198 43.9663 55.8936C45.6858 55.9805 45.6858 55.9805 45.7574 56.8672C45.2022 56.3457 44.6649 56.7629 44.1275 56.8325C42.9096 56.9716 42.0678 57.5279 41.62 58.6928C41.4767 59.0579 41.0827 59.3187 40.7244 59.7186C40.7424 59.7708 40.7961 59.9446 40.8319 60.1359C40.0617 59.8751 39.8826 59.51 40.2588 58.8493C40.5453 58.3451 40.9215 57.8756 41.2618 57.3888C41.5663 56.9542 41.5663 56.5891 40.9931 56.3457C40.0617 55.9458 39.2737 55.3025 38.1811 55.1982C37.7691 55.1634 37.4109 54.6244 36.999 54.2767C36.8019 54.5896 36.5333 54.9548 36.3183 55.372C35.6915 56.6065 34.6347 57.3541 33.3093 57.7018C29.136 58.8145 25.1956 58.1886 21.5239 55.9805C20.9149 55.6328 20.4671 55.0938 19.8582 54.5723Z" fill="#20113D"/>
</g>
</svg>
