<svg width="120" height="120" viewBox="0 0 120 120" fill="none" xmlns="http://www.w3.org/2000/svg">
<circle cx="60" cy="60" r="58.5" stroke="white" stroke-width="3"/>
<g transform="translate(4,8)">
<g filter="url(#filter0_d)">
<circle cx="56" cy="52" r="52" fill="white"/>
</g>
<defs>
<filter id="filter0_d" x="0" y="0" width="112" height="112" filterUnits="userSpaceOnUse" color-interpolation-filters="sRGB">
<feFlood flood-opacity="0" result="BackgroundImageFix"/>
<feColorMatrix in="SourceAlpha" type="matrix" values="0 0 0 0 0 0 0 0 0 0 0 0 0 0 0 0 0 0 127 0"/>
<feOffset dy="4"/>
<feGaussianBlur stdDeviation="2"/>
<feColorMatrix type="matrix" values="0 0 0 0 0 0 0 0 0 0 0 0 0 0 0 0 0 0 0.25 0"/>
<feBlend mode="normal" in2="BackgroundImageFix" result="effect1_dropShadow"/>
<feBlend mode="normal" in="SourceGraphic" in2="effect1_dropShadow" result="shape"/>
</filter>
</defs>
</g>
<g transform="translate(20,20)">
<path fill-rule="evenodd" clip-rule="evenodd" d="M48.1979 26.9514C48.8219 28.2855 49.4459 29.6197 50.0926 31.0129C49.9292 31.1468 49.7637 31.2851 49.5958 31.4254L49.595 31.4261L49.5949 31.4261C49.2149 31.7436 48.8224 32.0716 48.4135 32.3825C47.9592 32.7261 47.5087 33.0745 47.0584 33.4227L47.0577 33.4233L47.0577 33.4233C45.9451 34.2838 44.834 35.1431 43.6712 35.9246C39.4848 38.7465 34.8674 39.8918 29.8982 39.4431C28.6842 39.3368 27.4022 38.9 26.8917 38.534C27.1865 36.41 27.47 34.3449 27.7534 32.2799L27.7539 32.2763C27.7199 32.2645 27.683 32.2556 27.6462 32.2468C27.6093 32.2379 27.5724 32.2291 27.5384 32.2173C27.4279 32.4505 27.3184 32.6838 27.209 32.9169L27.2086 32.9176C26.9361 33.4981 26.6644 34.0768 26.3812 34.6495C25.6455 36.1624 25.1521 37.769 24.6577 39.3792C24.5193 39.8298 24.3808 40.2808 24.2369 40.73C23.3293 43.5283 21.707 45.6772 18.9501 46.728C18.814 46.787 18.7005 47.0231 18.6438 47.2002C18.5326 47.5673 18.4339 47.9387 18.3351 48.3098L18.3351 48.3101C18.202 48.8102 18.0692 49.3098 17.9063 49.7978C17.2824 51.6869 16.1138 53.1509 14.5368 54.2726C13.8334 54.7685 13.13 55.2762 12.4607 55.8193C11.8821 56.2798 11.9048 56.4805 12.472 56.941C12.583 57.0311 12.6946 57.1199 12.8059 57.2084L12.8059 57.2085L12.806 57.2085C13.1613 57.4912 13.5138 57.7716 13.8334 58.0862C14.3553 58.6057 14.5936 59.2669 14.4007 60.0226C14.3553 60.1997 14.0944 60.4358 13.9355 60.4358C10.2143 60.4594 6.48177 60.4594 2.76056 60.4476C2.62442 60.4476 2.43155 60.4004 2.35213 60.3059C2.2382 60.1616 2.12156 60.0178 2.00458 59.8736L2.00437 59.8733L2.00434 59.8733C1.58557 59.3571 1.16243 58.8354 0.843229 58.2633C0.639016 57.8973 0.616325 57.2834 0.752467 56.8701C2.06851 52.7023 3.75893 48.747 6.94692 45.7126C7.08307 45.5827 7.16248 45.2993 7.17383 45.0986C7.25324 42.0997 7.5936 39.1243 8.33103 36.2316C8.96636 33.7285 9.64707 31.2255 10.8497 28.9231C13.062 24.7199 15.9209 21.2132 20.3115 19.3241C24.0895 17.7065 27.7766 17.9545 31.3731 19.8672C31.8668 20.1321 32.3133 20.4954 32.7483 20.8492C32.953 21.0157 33.1551 21.1801 33.3585 21.3313C32.95 20.4103 32.2353 19.6547 31.4638 18.9581C32.1903 18.6705 32.9195 18.3921 33.6473 18.1143L33.6475 18.1142C36.864 16.8863 40.0554 15.6681 42.877 13.704C43.0013 14.1539 43.1233 14.6083 43.2461 15.0653L43.2461 15.0654C43.4036 15.6518 43.5622 16.2423 43.7279 16.8328C43.7733 16.9745 43.8641 17.1044 43.9775 17.2225C43.7506 15.7584 43.7506 14.2943 44.2838 12.9483C44.783 11.6732 45.3843 10.3862 46.1558 9.27639C48.0504 6.58441 50.3308 4.24664 52.8721 2.20404L52.8722 2.20402L52.8722 2.204C52.9743 2.12136 53.0764 2.03873 53.1898 1.95609C53.372 1.83506 53.5525 1.7061 53.7335 1.57687C54.6115 0.949698 55.4986 0.316114 56.6274 0.551068C58.488 0.92889 60.0423 1.94429 61.1087 3.60906C61.415 4.08134 61.7667 4.41194 62.2546 4.58904C63.5252 5.04951 64.4782 5.84057 65.0909 7.12753C65.313 7.59775 65.6332 8.01417 65.9541 8.43126C66.1085 8.63207 66.2631 8.83304 66.4069 9.04025C66.7019 9.4653 66.7586 9.81951 66.4296 10.3154C66.1573 10.7286 66.0212 11.2836 65.9418 11.7913C65.8396 12.3934 66.0666 12.783 66.6792 13.1136C68.2789 13.9637 69.2092 15.8647 68.3242 17.7892C68.1768 18.108 68.0406 18.4268 67.9158 18.7574C67.3259 20.3395 66.2027 20.8944 64.6597 20.3395C64.6342 20.3306 64.608 20.3218 64.5817 20.3129L64.5816 20.3129C64.503 20.2863 64.4243 20.2598 64.3648 20.2332C64.0811 20.6465 63.7975 21.0479 63.4912 21.4729C63.4477 21.4176 63.4103 21.3772 63.3818 21.3464C63.3434 21.305 63.321 21.2807 63.321 21.2604C63.4118 20.245 62.8218 19.6429 62.1638 19.0289C59.0893 16.148 55.3227 16.6675 52.7473 18.3323C53.0369 18.2712 53.3237 18.2045 53.6097 18.138L53.6098 18.138C54.153 18.0117 54.6933 17.8861 55.2433 17.801C58.5107 17.3287 61.347 18.8518 62.8559 21.898C63.8996 23.9996 64.6371 26.1957 64.4555 28.6279L64.4535 28.6564V28.6565C64.4201 29.1328 64.3837 29.6517 64.1946 30.0684C63.5366 31.5325 63.7408 33.0083 64.1038 34.4606L64.1707 34.7312C64.5114 36.111 64.8611 37.5276 65.5106 38.7465C68.0179 43.4338 68.2221 48.499 68.0406 53.635C67.9612 55.8429 67.2805 57.8029 65.5333 59.2315C64.5576 60.0344 63.5139 60.5893 62.2092 60.483C61.6079 60.4358 60.9953 60.424 60.394 60.483C59.2595 60.6129 58.4766 60.0226 57.8073 59.1961C57.0812 58.3106 56.7522 57.2834 56.9564 56.1263C57.0131 55.8193 57.2287 55.4415 57.4783 55.2998C57.7918 55.1265 58.0207 55.367 58.2527 55.6107C58.2893 55.6492 58.326 55.6878 58.3632 55.7248C58.7129 56.077 59.1747 56.3358 59.6148 56.5825L59.6149 56.5825L59.6225 56.5868C60.0082 56.7993 60.2124 56.6222 60.2578 56.1735C60.3032 55.6422 60.1444 55.1935 59.7586 54.8511C57.5917 52.9266 56.2303 50.4117 55.005 47.8024C54.0634 45.7834 53.4621 43.67 53.2465 41.4267C53.0877 39.7383 53.3713 38.0971 53.6776 36.4559C53.8251 35.7121 53.9726 34.9565 54.018 34.189C54.1201 32.6659 53.6096 31.379 52.3502 30.5643C50.796 29.5607 49.4119 28.3564 48.3 26.8451C48.3114 26.8805 48.2547 26.9159 48.1979 26.9514ZM51.5214 32.3137C52.1794 32.8686 52.4177 33.5062 52.2815 34.2973C52.1976 34.8087 52.1053 35.3187 52.0129 35.8287L52.0128 35.8294L52.0128 35.8295C51.8429 36.7675 51.673 37.7058 51.5554 38.654C51.1697 41.8537 51.8844 44.8763 53.0757 47.7926C53.2912 48.3239 53.3139 48.749 53.087 49.2803C52.0546 51.7125 50.9315 54.0857 49.4793 56.2936C47.596 59.1509 44.9639 60.4732 41.6738 60.4732C41.4794 60.4732 41.286 60.4764 41.093 60.4796H41.0929C40.644 60.4871 40.1974 60.4945 39.7451 60.4614C39.5182 60.4496 39.2346 60.2961 39.1098 60.1072C38.0547 58.6196 38.2362 55.538 39.4502 54.1802C39.5863 54.0267 39.8926 53.885 40.0628 53.944C40.1921 53.9921 40.2839 54.1968 40.3686 54.3859C40.3879 54.429 40.4069 54.4713 40.4258 54.5107C40.4726 54.6082 40.5067 54.7155 40.5405 54.8223C40.5969 55.0002 40.6527 55.1764 40.7662 55.3018C40.9704 55.5498 41.3221 55.904 41.549 55.8567C41.7873 55.8095 42.0255 55.3727 42.1276 55.0657C42.2297 54.7705 42.1957 54.4045 42.139 54.0975C42.0567 53.6652 41.9536 53.2361 41.8507 52.8078L41.8507 52.8077C41.6697 52.0545 41.4893 51.3038 41.4242 50.5436C41.1179 47.1314 41.4129 43.7783 42.831 40.6258C43.16 39.9056 43.5344 39.1735 44.0223 38.5596C44.5328 37.8984 45.1681 37.3199 45.8148 36.8004C46.4784 36.2577 47.1622 35.7446 47.8469 35.2307L47.8469 35.2307L47.8473 35.2304C48.3096 34.8834 48.7724 34.5361 49.2297 34.1792C49.7398 33.7751 50.2447 33.3604 50.7583 32.9387C51.0101 32.7319 51.2639 32.5235 51.5214 32.3137ZM27.1377 40.7059C26.8464 40.6162 26.5536 40.5261 26.2555 40.4348C26.1544 40.6627 26.0565 40.8939 25.9582 41.1258C25.7916 41.5188 25.6241 41.9142 25.4386 42.3003C24.3154 44.6617 22.8406 46.7161 20.5602 48.0385C20.3787 48.1447 20.2539 48.4163 20.1858 48.6406C19.6412 50.5415 18.9605 52.3598 17.7012 53.8947C17.6105 54.0128 17.531 54.2253 17.5651 54.3552C17.9622 55.6658 18.3706 56.9763 18.813 58.2633C18.8925 58.4876 19.1307 58.7001 19.3463 58.83C20.1518 59.3023 20.9573 59.7628 21.7855 60.1996C22.0578 60.3413 22.3754 60.4712 22.6704 60.4712C25.0694 60.4889 27.4621 60.4867 29.8579 60.4845C30.6571 60.4837 31.4567 60.483 32.2571 60.483H32.9605C32.8842 60.3202 32.822 60.1614 32.7631 60.0111C32.6469 59.7145 32.5437 59.451 32.3705 59.2551C31.9394 58.771 31.4516 58.3105 30.9297 57.9445C30.4396 57.6014 29.9075 57.3165 29.3774 57.0327C29.2326 56.9552 29.0879 56.8778 28.9443 56.7992C28.377 56.4804 28.1274 56.0082 28.1728 55.347C28.1804 55.1895 28.198 55.0321 28.2157 54.8747C28.2245 54.796 28.2333 54.7173 28.2409 54.6385C28.2756 54.2811 28.3188 53.9225 28.362 53.5635C28.4601 52.7486 28.5585 51.9315 28.5585 51.1201C28.5585 49.4317 27.8324 47.9794 26.8 46.7043C28.5926 45.3111 28.9443 43.3393 29.1145 41.3085C28.4326 41.1046 27.7886 40.9063 27.1377 40.7059Z" fill="#20113D"/>
</g>

</svg>
