<svg width="26" height="22" viewBox="0 0 26 22" fill="none" xmlns="http://www.w3.org/2000/svg">
<path fill-rule="evenodd" clip-rule="evenodd" d="M11.9318 0.119971C12.1139 0.199174 12.2794 0.315255 12.4187 0.461565C12.5583 0.607505 12.6691 0.780876 12.7446 0.971748C12.8202 1.16262 12.8591 1.36724 12.8591 1.57389C12.8591 1.78055 12.8202 1.98517 12.7446 2.17604C12.6691 2.36691 12.5583 2.54028 12.4187 2.68622L6.39097 9H23.5416C23.9659 9 24.3729 9.21071 24.673 9.58579C24.973 9.96086 25.1416 10.4696 25.1416 11C25.1416 11.5304 24.973 12.0391 24.673 12.4142C24.3729 12.7893 23.9659 13 23.5416 13H6.39018L12.4187 19.3146C12.7002 19.6096 12.8584 20.0097 12.8584 20.4269C12.8584 20.8441 12.7002 21.2443 12.4187 21.5393C12.1371 21.8343 11.7553 22 11.3571 22C10.959 22 10.5771 21.8343 10.2956 21.5393L1.29962 12.1127C1.15999 11.9668 1.04921 11.7934 0.973627 11.6026C0.898043 11.4117 0.859135 11.2071 0.859135 11.0004C0.859135 10.7938 0.898043 10.5891 0.973627 10.3983C1.04921 10.2074 1.15999 10.034 1.29962 9.88808L10.2956 0.461565C10.4349 0.315255 10.6003 0.199174 10.7825 0.119971C10.9646 0.0407677 11.1599 0 11.3571 0C11.5543 0 11.7496 0.0407677 11.9318 0.119971Z" fill="white"/>
</svg>
