<svg width="25" height="22" viewBox="0 0 25 22" fill="none" xmlns="http://www.w3.org/2000/svg">
<path fill-rule="evenodd" clip-rule="evenodd" d="M11.4313 0.119971C11.6134 0.199174 11.7789 0.315255 11.9182 0.461565C12.0578 0.607505 12.1686 0.780876 12.2442 0.971748C12.3197 1.16262 12.3586 1.36724 12.3586 1.57389C12.3586 1.78055 12.3197 1.98517 12.2442 2.17604C12.1686 2.36691 12.0578 2.54028 11.9182 2.68622L5.89048 9H23.0411C23.4655 9 23.8724 9.21071 24.1725 9.58579C24.4725 9.96086 24.6411 10.4696 24.6411 11C24.6411 11.5304 24.4725 12.0391 24.1725 12.4142C23.8724 12.7893 23.4655 13 23.0411 13H5.88969L11.9182 19.3146C12.1997 19.6096 12.3579 20.0097 12.3579 20.4269C12.3579 20.8441 12.1997 21.2443 11.9182 21.5393C11.6366 21.8343 11.2548 22 10.8566 22C10.4585 22 10.0766 21.8343 9.79511 21.5393L0.799131 12.1127C0.659504 11.9668 0.548725 11.7934 0.473139 11.6026C0.397554 11.4117 0.358646 11.2071 0.358646 11.0004C0.358646 10.7938 0.397554 10.5891 0.473139 10.3983C0.548725 10.2074 0.659504 10.034 0.799131 9.88808L9.79511 0.461565C9.93439 0.315255 10.0998 0.199174 10.282 0.119971C10.4641 0.0407677 10.6594 0 10.8566 0C11.0539 0 11.2491 0.0407677 11.4313 0.119971Z" fill="#20113D"/>
</svg>
