<svg width="120" height="120" viewBox="0 0 120 120" fill="none" xmlns="http://www.w3.org/2000/svg">
<circle cx="60" cy="60" r="58.5" stroke="white" stroke-width="3"/>
<g transform="translate(4,8)">
<g filter="url(#filter0_d)">
<circle cx="56" cy="52" r="52" fill="white"/>
</g>
<defs>
<filter id="filter0_d" x="0" y="0" width="112" height="112" filterUnits="userSpaceOnUse" color-interpolation-filters="sRGB">
<feFlood flood-opacity="0" result="BackgroundImageFix"/>
<feColorMatrix in="SourceAlpha" type="matrix" values="0 0 0 0 0 0 0 0 0 0 0 0 0 0 0 0 0 0 127 0"/>
<feOffset dy="4"/>
<feGaussianBlur stdDeviation="2"/>
<feColorMatrix type="matrix" values="0 0 0 0 0 0 0 0 0 0 0 0 0 0 0 0 0 0 0.25 0"/>
<feBlend mode="normal" in2="BackgroundImageFix" result="effect1_dropShadow"/>
<feBlend mode="normal" in="SourceGraphic" in2="effect1_dropShadow" result="shape"/>
</filter>
</defs>
</g>
<g transform="translate(40,30)">
<path fill-rule="evenodd" clip-rule="evenodd" d="M18.0593 0.509589C19.0004 0.456908 19.898 0.650073 20.8217 0.974941C20.7911 1.06204 20.7629 1.14765 20.7351 1.23176L20.7351 1.23176C20.6676 1.43593 20.6031 1.63129 20.5167 1.81784C20.2509 2.39295 19.9808 2.96805 19.7106 3.54315C19.4405 4.11826 19.1704 4.69336 18.9046 5.26847L18.9038 5.2701C18.7607 5.58031 18.6911 5.73136 18.5739 5.79504C18.4627 5.85548 18.3087 5.83723 18.0086 5.80165L17.9548 5.79528C17.6498 5.76016 17.4668 5.62846 17.4232 5.32993C17.4047 5.20421 17.3814 5.07786 17.3579 4.9514L17.3579 4.95136L17.3579 4.95133L17.3579 4.9513L17.3579 4.95127L17.3579 4.95123L17.3579 4.9512L17.3579 4.95117L17.3579 4.95113L17.3579 4.9511L17.3579 4.95107C17.293 4.60071 17.228 4.24938 17.2664 3.90753C17.3626 3.06287 17.5184 2.22366 17.674 1.38561L17.674 1.38556L17.674 1.38548L17.674 1.38539L17.674 1.38531L17.674 1.38522L17.674 1.38513L17.6741 1.38506L17.6741 1.385L17.6741 1.38497L17.6741 1.38494L17.6741 1.3849C17.7158 1.16039 17.7574 0.935963 17.7979 0.711534C17.8154 0.632512 17.9635 0.518369 18.0593 0.509589ZM12.1872 3.35521L12.1874 3.35546L12.1874 3.35551L12.1875 3.35561C12.7652 4.22139 13.3305 5.06853 13.9205 5.90076C14.1383 6.21685 14.4346 6.49781 14.9139 6.30465C15.6458 6.02368 15.8288 5.83052 15.611 5.05786C15.3503 4.11869 15.5121 3.2156 15.6744 2.30935L15.6744 2.30933C15.6912 2.21583 15.708 2.12229 15.7243 2.02868C15.7852 1.69503 15.7765 1.32626 15.6981 0.992616C15.6633 0.834572 15.3496 0.597506 15.2276 0.623847C13.8943 0.957495 12.7267 1.61601 11.6113 2.49403C11.8055 2.7832 11.997 3.07022 12.1872 3.35521ZM8.76433 10.0505C9.37482 10.4996 9.9871 10.95 10.6102 11.4059C10.4011 12.4157 9.86084 12.9864 8.80645 13.1005C7.35123 13.2498 6.12257 12.6527 5.0159 11.7572C4.9549 11.7045 4.92876 11.5113 4.97233 11.4235C5.0363 11.2801 5.09998 11.1364 5.16369 10.9926L5.1643 10.9912L5.1651 10.9894L5.16534 10.9889L5.16604 10.9873L5.16606 10.9872L5.16607 10.9872L5.16609 10.9872L5.16611 10.9871L5.16613 10.9871L5.16614 10.9871L5.16616 10.987L5.16618 10.987L5.16619 10.987L5.16621 10.9869L5.16623 10.9869L5.16625 10.9869L5.16626 10.9868L5.16628 10.9868C5.44883 10.349 5.73204 9.70977 6.04414 9.08797C6.12795 8.91305 6.26521 8.76714 6.3966 8.62747L6.39664 8.62743C6.45651 8.56379 6.51516 8.50144 6.56698 8.43823C7.3064 8.97791 8.03292 9.5124 8.76199 10.0488L8.76351 10.0499L8.76381 10.0501L8.76433 10.0505ZM9.15399 15.4169C7.50706 15.0043 5.91241 14.6004 4.19577 14.1614C4.159 14.3652 4.11791 14.5755 4.07593 14.7904L4.07592 14.7905C3.99851 15.1867 3.91806 15.5985 3.85592 16.014C3.79626 16.4075 3.75686 16.8044 3.71669 17.2089V17.2089C3.69233 17.4543 3.66769 17.7025 3.63808 17.9544C5.01488 18.6481 6.42653 18.8412 7.82076 18.0335C8.81414 17.4715 9.20627 16.5408 9.15399 15.4169ZM3.69903 20.0716C3.43761 21.4589 3.64674 22.7671 4.13472 24.0403C4.17829 24.1456 4.29157 24.2598 4.39614 24.2949C6.45262 24.9885 8.77052 23.6013 9.09294 21.7311C9.13651 21.4764 9.15394 21.2043 9.13651 20.9496C9.03194 19.8345 8.82281 19.6765 7.74228 19.8345L7.43097 19.8801C6.68937 19.9889 5.94695 20.0978 5.19782 20.1594C4.86875 20.1835 4.53146 20.1497 4.18314 20.1147C4.02415 20.0988 3.86287 20.0826 3.69903 20.0716ZM9.55484 28.3061C10.252 26.8134 10.0341 25.7422 8.85773 24.8115C7.63778 25.7422 6.22613 26.0847 4.70991 26.1373C4.60534 26.1373 4.43106 26.2866 4.40492 26.4007C4.16964 27.5158 4.50077 28.508 5.11946 29.4211C5.16899 29.4932 5.26372 29.5303 5.3707 29.5722C5.4331 29.5966 5.49967 29.6226 5.56387 29.6582C5.5337 29.6785 5.50425 29.6987 5.47512 29.7188L5.47505 29.7188C5.40322 29.7683 5.33326 29.8164 5.25888 29.8601C3.67295 30.8172 2.392 32.0728 1.63389 33.7849C0.640503 36.0414 0.283237 38.3682 1.18077 40.7652C1.34231 41.1961 1.4909 41.6348 1.63925 42.0727L1.6393 42.0729L1.63934 42.073L1.63939 42.0732L1.63943 42.0733L1.63948 42.0734L1.63953 42.0736L1.63957 42.0737L1.63962 42.0738L1.63966 42.074L1.63971 42.0741L1.63976 42.0742L1.6398 42.0744L1.63985 42.0745L1.63989 42.0747L1.63994 42.0748L1.63998 42.0749L1.64003 42.0751C1.7635 42.4396 1.8868 42.8036 2.0173 43.1622C2.453 44.3739 2.48786 45.6206 2.1393 46.8323C1.11106 50.3707 2.0783 53.6194 3.44639 56.8242C3.56644 57.0921 3.76244 57.3344 3.95135 57.568L3.96051 57.5793C4.22192 57.9042 4.56177 58.0095 4.97132 57.8691C5.38088 57.7198 5.67715 57.4476 5.65972 57.0174C5.64229 56.4642 5.57258 55.9111 5.44187 55.3755C5.34166 54.9496 5.21967 54.5282 5.09767 54.1067C4.97568 53.6853 4.85369 53.2638 4.75348 52.838C4.47463 51.6351 4.8319 50.6429 5.80786 49.8966C5.84948 49.8659 5.89022 49.8342 5.93063 49.8028L5.93074 49.8027L5.93084 49.8027L5.93094 49.8026L5.93105 49.8025L5.9311 49.8025L5.93115 49.8024L5.9312 49.8024L5.93125 49.8023L5.93149 49.8022C6.01771 49.7352 6.10248 49.6693 6.19127 49.6156C7.66392 48.764 8.57017 47.4294 9.31956 45.9455C9.52882 45.5238 9.79963 45.131 10.07 44.7388L10.0701 44.7387C10.1938 44.5594 10.3174 44.3801 10.4349 44.1982L10.5395 44.2509C10.5918 44.4968 10.6452 44.7426 10.6985 44.9884L10.6986 44.9886C10.8587 45.7261 11.0188 46.4636 11.1495 47.2011C11.7333 50.4059 13.6155 52.8204 15.794 55.0682C16.0089 55.2933 16.2916 55.4587 16.5585 55.6148L16.5695 55.6213C16.9355 55.8408 17.3102 55.8408 17.6588 55.5511C18.016 55.2525 18.1468 54.875 17.9899 54.4535C17.8331 54.0497 17.6326 53.6545 17.3886 53.2946C17.1356 52.9263 16.8624 52.5732 16.5894 52.2204C16.3547 51.9171 16.1201 51.614 15.8986 51.3014C14.8616 49.8439 14.818 48.8166 15.8376 47.3591C16.648 46.1914 17.2057 44.9182 17.7023 43.5397C17.841 43.6047 17.9772 43.6649 18.1107 43.7238L18.1108 43.7239L18.1109 43.7239L18.1111 43.724L18.1112 43.724L18.1113 43.7241C18.3383 43.8243 18.557 43.9209 18.7654 44.0314C20.9091 45.208 22.2249 47.0606 23.0091 49.3347C23.3276 50.2417 23.6021 51.1653 23.8763 52.0879L23.8764 52.0881L23.8765 52.0887C23.9473 52.3269 24.0181 52.5651 24.0896 52.8029C24.3423 53.6458 24.7519 54.3921 25.3096 55.0594C25.5224 55.3123 25.7349 55.5653 25.9473 55.8182L25.9473 55.8182L25.9473 55.8182L25.9474 55.8182C26.9442 57.0048 27.9392 58.1892 28.952 59.3617C29.2396 59.6953 29.5881 60.0114 29.9628 60.2485C30.6425 60.6787 31.3048 60.547 31.9322 59.9412C32.3853 59.5022 32.4637 58.9578 32.0542 58.2642C31.8192 57.8647 31.5162 57.5026 31.2182 57.1464L31.2181 57.1463L31.2181 57.1463L31.218 57.1462L31.2176 57.1457C31.1621 57.0794 31.1067 57.0133 31.0521 56.9471C30.8778 56.7364 30.6774 56.5345 30.4682 56.3589C28.6993 54.8399 28.2636 52.8292 28.342 50.6254C28.3547 50.2553 28.3996 49.8853 28.4432 49.5254L28.4432 49.5253C28.4596 49.3899 28.4759 49.2559 28.4902 49.124C28.7628 49.0715 29.0321 49.019 29.2956 48.9677L29.2972 48.9674C29.7828 48.8728 30.2484 48.7821 30.6774 48.7025C30.8398 49.0632 30.9919 49.4319 31.1442 49.8012C31.4738 50.6004 31.8048 51.4029 32.2459 52.1356C32.8946 53.2156 33.6632 54.2208 34.4315 55.2258L34.4319 55.2263L34.4321 55.2265L34.4321 55.2265C34.613 55.4632 34.794 55.6998 34.9733 55.9374C35.2783 56.3413 35.6879 56.6662 36.2455 56.5345C36.5418 56.4642 36.7684 55.6564 36.6202 55.0857C36.4808 54.5501 36.3153 54.0058 36.0451 53.5316C34.8426 51.398 34.3808 49.0537 34.0584 46.6743C33.8928 45.4626 33.1783 44.9182 31.9757 45.1553C29.7275 45.6031 27.4706 45.8226 25.1789 45.6206C25.0221 45.6031 24.8652 45.568 24.7084 45.5329L24.7083 45.5328C23.0875 45.1465 22.4427 43.6363 23.2792 42.17C23.3054 42.1173 23.3315 42.0647 23.3751 42.0208C24.1541 41.2293 24.5764 40.2461 25.0004 39.2589C25.1503 38.91 25.3003 38.5606 25.4664 38.2189C25.7976 37.5516 26.425 36.9897 27.0262 36.498C27.7669 35.9009 28.6732 35.6024 29.6056 35.4005C29.7363 35.3741 29.928 35.2512 29.9541 35.1458C29.9802 35.0229 29.8757 34.7946 29.7711 34.742C29.7046 34.7103 29.6377 34.6778 29.5704 34.6451C29.1708 34.4507 28.7585 34.2502 28.3333 34.1976C27.6362 34.1098 26.913 34.1273 26.2071 34.1976C25.4229 34.2766 24.7258 34.0308 24.0722 33.7147C23.3751 33.381 22.7128 32.9244 22.0854 32.4679C20.3688 31.2123 18.6347 29.9919 16.6654 29.1577C14.5566 28.2534 12.3694 27.9548 10.1038 28.2885C9.93825 28.2709 9.75526 28.2797 9.55484 28.3061ZM19.1132 26.616C18.4161 27.055 17.658 27.2482 16.8389 27.2482C16.0546 27.2219 15.3053 27.0638 14.6691 26.5721C13.9633 26.0365 13.6932 25.2463 14.1027 24.4824C14.3641 24.0017 14.7285 23.5803 15.0928 23.1588L15.093 23.1587L15.0931 23.1586L15.0932 23.1584L15.0933 23.1583L15.0934 23.1581L15.0936 23.158L15.0937 23.1578L15.0938 23.1577L15.0939 23.1576L15.094 23.1574L15.0942 23.1573L15.0943 23.1571L15.0943 23.1571L15.0943 23.1571L15.0943 23.1571L15.0944 23.1571C15.2153 23.0172 15.3363 22.8773 15.4534 22.7352C15.5144 22.6649 15.6625 22.6386 15.7671 22.6474C17.658 22.8318 19.1219 24.14 19.4618 25.7907C19.5489 26.1946 19.4356 26.4141 19.1132 26.616ZM9.65024 4.03198C10.6436 4.78708 12.0379 6.508 12.9877 8.13234L12.8897 8.2573L12.8896 8.25732L12.8896 8.25734L12.8895 8.25754L12.8894 8.25762L12.8893 8.25782C12.6647 8.54404 12.4525 8.81441 12.247 9.09817C12.064 9.35279 11.8461 9.41426 11.5324 9.31767C9.92037 8.79964 8.8137 7.64065 7.64604 6.39386C8.32509 5.59561 8.98674 4.81488 9.64838 4.03418L9.64875 4.03374L9.65024 4.03198ZM23.2441 9.42381C23.9621 8.80061 24.8367 8.69169 25.7165 8.58212L25.7166 8.58211L25.7166 8.5821L25.7167 8.5821L25.7167 8.58209L25.7168 8.58209L25.7168 8.58208L25.7169 8.58208L25.7169 8.58207L25.717 8.58206L25.717 8.58206L25.717 8.58205C25.9155 8.55734 26.1142 8.53259 26.3114 8.50189C26.7645 8.43165 27.2176 8.29995 27.6533 8.15946C27.7492 8.12434 27.8886 7.94874 27.8712 7.86094C27.7405 6.99169 27.4704 6.17513 26.7471 5.6132C26.6251 5.51662 26.4247 5.45516 26.2853 5.47272C25.2222 5.63954 24.2375 6.00831 23.3574 6.63171C23.2528 6.71073 23.1482 6.78975 23.0524 6.87755C22.1461 7.72045 22.2071 8.6775 23.2441 9.42381ZM23.5844 23.8298C22.7042 22.2494 18.8701 20.7392 17.8767 21.5909C17.8767 21.6172 17.8767 21.6611 17.8942 21.6699C19.0793 22.706 19.9332 24.0142 20.761 25.34C20.9615 25.6649 21.1619 25.6825 21.4756 25.5771C22.2076 25.3313 23.0441 24.6464 23.5844 23.8298ZM29.4392 40.8709C29.3085 41.547 29.0383 41.7489 28.3412 41.7665C28.2187 41.7435 28.0963 41.7252 27.9744 41.7071C27.7234 41.6696 27.475 41.6326 27.2346 41.5557C26.4503 41.3187 26.1105 40.7655 26.2586 39.949C26.3109 39.6504 26.4242 39.3607 26.5549 39.0885C27.0254 38.1315 27.801 37.4554 28.6898 36.911C28.9948 36.7266 29.3608 36.6125 29.7093 36.551C29.8704 36.5198 30.0491 36.5641 30.2267 36.608C30.2988 36.6259 30.3708 36.6437 30.4413 36.6564C30.4265 36.7208 30.4152 36.7888 30.4039 36.857C30.3751 37.0306 30.3458 37.2064 30.2583 37.3325C29.7529 38.0612 29.6047 38.8778 29.5612 39.7382C29.5438 40.1158 29.5089 40.5021 29.4392 40.8709ZM27.8271 39.589C27.4437 39.589 27.1039 39.9314 27.1126 40.3177C27.1148 40.4173 27.1374 40.5119 27.1764 40.5975C27.138 40.5124 27.1157 40.4186 27.1135 40.3198C27.1135 39.9335 27.4446 39.5911 27.8281 39.5911C28.1112 39.5911 28.358 39.7604 28.47 40.0066C28.3584 39.7593 28.1111 39.589 27.8271 39.589ZM23.5057 11.861C23.8452 11.8893 24.1825 11.9173 24.5181 11.9452L24.5183 11.9452L24.5185 11.9452L24.5185 11.9452L24.5186 11.9452L24.5187 11.9452C25.8457 12.0554 27.1461 12.1633 28.4465 12.2824C28.8299 12.3175 28.9519 12.1683 28.9867 11.8083C29.0564 11.0356 28.795 10.4298 28.1502 10.0083C27.061 9.30592 25.1178 9.42884 24.1244 10.2717C23.619 10.6932 23.4011 11.2288 23.5057 11.861ZM22.7217 1.75488C23.7674 2.3256 24.7608 2.90509 25.4579 3.89726C23.8545 4.84552 22.3034 5.76744 20.7524 6.69815C20.4648 6.24157 20.43 5.93427 20.6391 5.29331C21.0367 4.0588 21.7893 3.02983 22.5524 1.98667L22.5528 1.98615L22.5533 1.98535C22.6095 1.90863 22.6656 1.83184 22.7217 1.75488ZM20.3516 19.9945C21.4385 20.3668 22.3119 21.0397 23.2021 21.7256L23.2021 21.7256C23.7393 22.1395 24.2827 22.5581 24.8828 22.9183C24.9644 22.7888 25.0457 22.6604 25.1265 22.5328L25.1275 22.5311L25.1281 22.5301L25.1283 22.5299C25.4523 22.0179 25.7685 21.5182 26.0679 21.013C26.1115 20.9427 26.0854 20.7408 26.0156 20.6881C24.8828 19.7925 23.6629 19.0725 22.1728 19.0023C21.4321 18.9847 20.7699 19.1779 20.3516 19.9945ZM28.6387 14.1647C28.6213 14.884 28.6035 15.6207 28.1421 16.226C27.961 16.166 27.7818 16.1053 27.6039 16.045C27.1313 15.8849 26.6674 15.7278 26.1989 15.5938C25.3711 15.3743 24.5433 15.1724 23.7067 14.988C23.393 14.9177 23.3233 14.7597 23.3669 14.4612C23.4802 13.6358 24.0466 13.1266 25.0051 13.0915C26.2338 13.0388 27.3666 13.4514 28.4732 13.9431C28.5517 13.9783 28.6388 14.0924 28.6388 14.1626L28.6387 14.1647ZM25.5609 40.8882C25.3749 41.1173 25.2084 41.3188 25.0532 41.5066L25.0528 41.5072C24.8811 41.715 24.7231 41.9062 24.5676 42.0999C24.5141 42.1665 24.4585 42.2316 24.403 42.2966L24.4029 42.2967C24.2683 42.4542 24.1347 42.6107 24.036 42.7847C23.7136 43.3466 23.8704 43.9613 24.463 44.2159C24.9335 44.4178 25.4564 44.5495 25.9618 44.6022C27.3124 44.7515 28.6457 44.6198 29.9528 44.2247C29.8656 43.6101 29.5868 43.3291 28.9768 43.2676C28.6723 43.2402 28.3644 43.2299 28.0574 43.2197L28.0572 43.2196L28.0571 43.2196L28.0569 43.2196C27.872 43.2134 27.6875 43.2073 27.5041 43.1974C26.3191 43.1271 26.1273 42.9428 25.8921 41.7838C25.8512 41.5895 25.7711 41.3991 25.686 41.1968C25.6441 41.0974 25.6011 40.9952 25.5609 40.8882ZM26.66 19.4215C25.2657 18.6927 23.8454 18.0606 22.2681 17.7445C22.4947 16.6206 23.2354 16.1201 24.4031 16.2694C25.5794 16.4099 26.6251 16.9016 27.5836 17.5777C27.6795 17.6479 27.8015 17.8059 27.7753 17.8762C27.5836 18.3679 27.3832 18.8684 27.1305 19.3337C27.0782 19.4215 26.7732 19.483 26.66 19.4215ZM30.4859 39.0281C30.4859 39.9412 30.634 40.0905 31.3311 39.9588C31.6187 39.9061 31.9237 39.7832 32.159 39.6076C33.0652 38.9315 33.3179 37.2984 32.6905 36.394C32.5424 36.1833 32.4117 36.0955 32.1677 36.2711C31.1569 37.0174 30.5295 37.9569 30.4859 39.0281Z" fill="#20113D"/>
</g>
</svg>
