<svg width="114" height="88" viewBox="0 0 114 88" fill="none" xmlns="http://www.w3.org/2000/svg">
<g filter="url(#filter0_d)">
<path d="M101.363 5.66044C94.9637 1.104 86.3479 -0.855944 77.9599 0.350174C69.2612 1.60655 61.6396 5.81121 57.021 11.9088C52.4024 5.81121 44.7807 1.60655 36.0821 0.350174C27.6941 -0.855944 19.0783 1.08725 12.6786 5.66044C4.97405 11.356 2.21947 20.9882 5.13973 32.0945C5.16045 32.128 5.18116 32.1615 5.20187 32.2118C5.28471 32.396 5.38827 32.5636 5.53324 32.7143C5.57467 32.7478 5.57467 32.7813 5.61609 32.8148C5.65751 32.8483 5.71964 32.8651 5.76107 32.8986C5.84391 32.9656 5.94747 33.0159 6.05102 33.0494C6.25813 33.1331 6.46524 33.1834 6.69307 33.2001C6.7552 33.2001 6.81733 33.2336 6.85875 33.2336C6.92089 33.2336 6.98302 33.2169 7.04515 33.2001C7.10729 33.2001 7.16942 33.2001 7.23155 33.2001C7.29369 33.1834 7.3144 33.1666 7.37653 33.1499C7.48009 33.1164 7.60435 33.0829 7.70791 33.0326C7.81146 32.9824 7.91502 32.9321 7.99786 32.8651C8.03929 32.8316 8.08071 32.8316 8.12213 32.7981L14.3355 27.7726L14.3562 27.7558C15.7231 26.6502 17.9185 26.6335 19.3061 27.7223C20.6938 28.8112 20.7352 30.5869 19.4097 31.726L9.21982 39.9678C8.76417 40.3363 8.59848 40.8556 8.76417 41.3414C8.92986 41.8272 9.40622 42.2293 10.0068 42.3465C10.6075 42.4638 11.2702 42.3465 11.7259 41.978L21.8122 33.8199C21.8329 33.8032 21.8536 33.8032 21.8536 33.8032C21.8743 33.7864 21.895 33.7529 21.9157 33.7362L28.0462 28.7777C28.0669 28.7609 28.0876 28.7609 28.0876 28.7442C29.4753 27.6553 31.6913 27.6553 33.079 28.7442C34.4459 29.8498 34.4459 31.659 33.0997 32.7646L33.079 32.7813L14.2526 48.0086C13.797 48.3771 13.6313 48.8964 13.797 49.3822C13.9627 49.868 14.439 50.2533 15.0396 50.3873C15.6403 50.5213 16.303 50.3706 16.7379 50.0188L33.079 36.8185L33.1204 36.785C34.508 35.6961 36.7448 35.7296 38.0911 36.852C39.4373 37.9743 39.4373 39.7668 38.0703 40.8724L34.3216 43.9044L20.673 54.9437C20.2174 55.3123 20.0517 55.8316 20.2174 56.3174C20.3831 56.8032 20.8594 57.1885 21.4601 57.3225C22.0607 57.4565 22.7234 57.3057 23.1584 56.9539L36.807 45.9146C38.1946 44.7923 40.4314 44.7923 41.7983 45.9146C43.186 47.037 43.186 48.8462 41.7983 49.9518C41.7983 49.9518 41.7983 49.9685 41.7776 49.9685L28.0876 61.0413L28.0669 61.0581L28.0462 61.0748C27.9841 61.1419 27.9219 61.2256 27.8805 61.2926C27.8184 61.3596 27.7562 61.4434 27.6941 61.5271C27.6527 61.6109 27.632 61.7114 27.632 61.7952C27.5698 61.9627 27.5698 62.1637 27.6527 62.3312C27.6734 62.415 27.6941 62.5155 27.7355 62.5992C27.7977 62.683 27.8598 62.7668 27.9219 62.8338C27.9633 62.9008 28.0255 62.9845 28.0876 63.0515L28.1083 63.0683L28.129 63.085C36.7656 69.3502 46.1062 74.9452 56.0476 79.7864C56.6068 80.0712 57.3317 80.0712 57.8909 79.7864C67.8322 74.9452 77.1729 69.3502 85.8094 63.085L85.8301 63.0683L85.8508 63.0515C85.9129 62.9845 85.9751 62.9175 86.0165 62.8338C86.0993 62.7668 86.1615 62.683 86.2029 62.5992C86.265 62.415 86.3064 62.2475 86.3479 62.0632C86.3479 61.9794 86.3272 61.8789 86.3064 61.7952C86.2857 61.7114 86.265 61.6109 86.2443 61.5271C86.2029 61.4434 86.1408 61.3596 86.0579 61.2926C86.0165 61.2089 85.9544 61.1419 85.8922 61.0748L85.8715 61.0581L85.8508 61.0413L72.1608 49.9685C72.1608 49.9685 72.1608 49.9518 72.1401 49.9518C70.7524 48.8294 70.7524 47.0202 72.1401 45.9146C73.5277 44.7923 75.7645 44.7923 77.1314 45.9146L90.78 56.9539C91.4635 57.5067 92.5819 57.5067 93.2861 56.9539C93.9696 56.4011 93.9696 55.4966 93.2861 54.927L79.6375 43.8877L75.8888 40.8556C74.9982 40.1353 74.6461 39.0799 74.9775 38.0916C75.3089 37.1033 76.2616 36.3327 77.4835 36.0647C78.7055 35.7966 80.0103 36.0814 80.9009 36.8017L80.9216 36.8185L97.2212 50.002C97.9047 50.5548 99.023 50.5548 99.7065 50.002C100.39 49.4492 100.39 48.5446 99.7065 47.9918L83.3862 34.8083L83.3655 34.7915C83.3448 34.7748 83.3448 34.7748 83.3241 34.7748L80.8594 32.7813C79.4718 31.659 79.4718 29.8498 80.8594 28.7442C82.2471 27.6386 84.4839 27.6218 85.8508 28.7442C85.8715 28.7609 85.8922 28.7609 85.8922 28.7777L91.857 33.6022C91.9192 33.6692 92.002 33.7362 92.1056 33.8032L102.233 41.978C102.689 42.3465 103.331 42.4805 103.952 42.3465C104.553 42.2125 105.029 41.8272 105.195 41.3414C105.361 40.8556 105.174 40.3196 104.739 39.9678L94.5909 31.7762C94.5702 31.7427 94.5287 31.7092 94.4873 31.6925V31.6757C93.2239 30.5534 93.2654 28.8112 94.6116 27.7391C95.9992 26.667 98.2153 26.667 99.603 27.7391L105.837 32.7813C105.878 32.8148 105.92 32.8148 105.961 32.8483C106.148 32.9656 106.355 33.0661 106.583 33.1164C106.624 33.1331 106.665 33.1499 106.728 33.1666C106.852 33.1834 106.976 33.2001 107.1 33.2001C107.307 33.2001 107.535 33.1666 107.722 33.0996C107.784 33.0829 107.825 33.0494 107.887 33.0326C108.032 32.9824 108.157 32.8986 108.281 32.8148C108.302 32.7981 108.322 32.7981 108.343 32.7813C108.384 32.7478 108.384 32.7143 108.426 32.6808C108.509 32.5971 108.592 32.4966 108.654 32.396C108.695 32.329 108.737 32.262 108.757 32.195C108.778 32.1448 108.799 32.1113 108.819 32.061C111.802 20.9882 109.068 11.356 101.363 5.66044ZM106.023 28.8447L102.192 25.7456C99.3959 23.5847 95.0051 23.5847 92.2091 25.7456C91.3392 26.466 90.7179 27.3371 90.3865 28.3087L88.4604 26.7507C88.4397 26.734 88.3983 26.7172 88.3776 26.7005C85.9336 24.7573 82.1021 24.5228 79.3268 26.1477C76.5515 27.7726 75.6195 30.7711 77.1314 33.2671C74.6875 33.6357 72.6786 35.0261 71.8294 36.9022C70.9802 38.7784 71.4152 40.8891 72.9892 42.447C71.7466 42.6816 70.6075 43.2009 69.7169 43.9212C66.983 46.1491 66.9623 49.734 69.6962 51.9787C69.7169 51.9955 69.7169 52.0122 69.7169 52.0122L82.1021 62.0297C74.294 67.5745 65.906 72.5665 57.0417 76.9554C48.1774 72.5665 39.7894 67.5745 31.9813 62.0297L44.3665 52.0122C44.3872 51.9955 44.3872 51.9787 44.3872 51.9787C47.1004 49.734 47.1004 46.1491 44.3665 43.9212C43.4552 43.2009 42.3368 42.6816 41.0942 42.447C42.6682 40.8891 43.1031 38.7952 42.254 36.9022C41.4048 35.0093 39.3959 33.6357 36.9727 33.2504C38.2775 31.0727 37.739 28.4594 35.6264 26.734C32.8719 24.5898 28.5225 24.573 25.7058 26.6837C25.6644 26.7005 25.6437 26.7172 25.6023 26.734L23.6761 28.2919C23.3655 27.3203 22.7442 26.4325 21.8743 25.7121C19.1404 23.5009 14.6875 23.4842 11.933 25.6786C11.9123 25.6954 11.8915 25.6954 11.8915 25.7121L8.06 28.8112C6.46524 19.8826 8.95057 12.2941 15.1018 7.73764C20.7145 3.80101 28.2119 2.12585 35.5436 3.1477C43.8487 4.27006 50.9526 8.60873 55.5091 15.3596C55.8405 15.7952 56.4411 16.0465 57.0624 16.0465C57.6837 16.0465 58.2844 15.7784 58.6157 15.3596C63.1929 8.59198 70.2761 4.2533 78.5812 3.1477C85.8922 2.12585 93.4103 3.81776 99.023 7.73764C105.133 12.3108 107.618 19.8993 106.023 28.8447Z" fill="#00A092"/>
</g>
<defs>
<filter id="filter0_d" x="0" y="0" width="114" height="88" filterUnits="userSpaceOnUse" color-interpolation-filters="sRGB">
<feFlood flood-opacity="0" result="BackgroundImageFix"/>
<feColorMatrix in="SourceAlpha" type="matrix" values="0 0 0 0 0 0 0 0 0 0 0 0 0 0 0 0 0 0 127 0"/>
<feOffset dy="4"/>
<feGaussianBlur stdDeviation="2"/>
<feColorMatrix type="matrix" values="0 0 0 0 0 0 0 0 0 0 0 0 0 0 0 0 0 0 0.25 0"/>
<feBlend mode="normal" in2="BackgroundImageFix" result="effect1_dropShadow"/>
<feBlend mode="normal" in="SourceGraphic" in2="effect1_dropShadow" result="shape"/>
</filter>
</defs>
</svg>
