<svg width="25" height="22" viewBox="0 0 25 22" fill="none" xmlns="http://www.w3.org/2000/svg">
<path fill-rule="evenodd" clip-rule="evenodd" d="M13.5682 0.119971C13.3861 0.199174 13.2206 0.315255 13.0813 0.461565C12.9417 0.607505 12.8309 0.780876 12.7554 0.971748C12.6798 1.16262 12.6409 1.36724 12.6409 1.57389C12.6409 1.78055 12.6798 1.98517 12.7554 2.17604C12.8309 2.36691 12.9417 2.54028 13.0813 2.68622L19.109 9H1.9584C1.53405 9 1.12709 9.21071 0.827028 9.58579C0.52697 9.96086 0.358398 10.4696 0.358398 11C0.358398 11.5304 0.52697 12.0391 0.827028 12.4142C1.12709 12.7893 1.53405 13 1.9584 13H19.1098L13.0813 19.3146C12.7998 19.6096 12.6416 20.0097 12.6416 20.4269C12.6416 20.8441 12.7998 21.2443 13.0813 21.5393C13.3629 21.8343 13.7447 22 14.1429 22C14.541 22 14.9229 21.8343 15.2044 21.5393L24.2004 12.1127C24.34 11.9668 24.4508 11.7934 24.5264 11.6026C24.602 11.4117 24.6409 11.2071 24.6409 11.0004C24.6409 10.7938 24.602 10.5891 24.5264 10.3983C24.4508 10.2074 24.34 10.034 24.2004 9.88808L15.2044 0.461565C15.0651 0.315255 14.8997 0.199174 14.7175 0.119971C14.5354 0.0407677 14.3401 0 14.1429 0C13.9457 0 13.7504 0.0407677 13.5682 0.119971Z" fill="#F58021"/>
</svg>
