<svg width="112" height="112" viewBox="0 0 112 112" fill="none" xmlns="http://www.w3.org/2000/svg">
<g filter="url(#filter0_d)">
<circle cx="56" cy="52" r="52" fill="#F58021"/>
</g>
<g transform="translate(15,20)">
<path fill-rule="evenodd" clip-rule="evenodd" d="M29.3149 37.7533C26.0307 38.7468 22.7211 38.594 19.386 36.3776C19.1298 36.6998 18.8674 37.0242 18.6022 37.3518C17.945 38.164 17.2714 38.9965 16.6365 39.8678C16.1655 40.5429 15.7263 41.2434 15.2872 41.944L15.2871 41.944C14.848 42.6446 14.4088 43.3452 13.9378 44.0203C12.894 45.5233 12.5122 47.1538 12.614 48.9625C12.7413 51.2808 11.8248 52.4527 9.55896 52.8603C4.90002 53.701 0.724802 50.2363 0.699343 45.5233C0.699343 45.0631 0.691136 44.6029 0.682958 44.1443C0.670765 43.4606 0.658637 42.7805 0.673876 42.1096C0.716682 40.3106 1.49723 38.7456 2.27428 37.1876C2.42152 36.8924 2.56863 36.5974 2.71057 36.3012C3.07788 35.539 3.44863 34.7781 3.81941 34.017C5.19618 31.1911 6.57343 28.3642 7.77685 25.4741C9.54581 21.2384 12.2032 17.5954 14.87 13.9395C15.4271 13.1757 15.9847 12.4113 16.5346 11.6409C16.561 11.6079 16.5891 11.5749 16.6175 11.5415L16.6177 11.5413L16.6177 11.5413L16.6178 11.5412L16.6178 11.5412L16.6178 11.5412C16.6991 11.4456 16.7836 11.3464 16.8401 11.2333C19.8188 5.80698 25.1142 4.5332 30.5624 3.46323C31.9059 3.20377 33.2386 2.8788 34.5704 2.55403C36.1155 2.17724 37.6596 1.80072 39.2183 1.52708C42.0697 1.01757 44.9974 0.60996 47.8997 0.508058C51.3366 0.38068 54.2389 1.98564 56.8102 4.20201C52.9151 2.21492 48.7399 1.52709 44.4119 1.62899C43.3172 1.65446 42.2224 1.75637 41.1277 1.88374C39.5493 2.06207 38.8873 3.23394 38.4545 4.58414C37.3344 8.02334 37.5635 11.4116 38.7601 14.8253C39.0484 15.6455 39.2282 16.5109 39.4073 17.373L39.4073 17.3731L39.4074 17.3731L39.4074 17.3731L39.4074 17.3732C39.5287 17.9571 39.6497 18.5394 39.8039 19.1052C40.0005 19.8102 40.1924 20.5175 40.3844 21.2252L40.3846 21.2258C41.0876 23.8167 41.7918 26.4121 42.7316 28.9133C43.1135 29.9578 44.3864 30.9768 45.4811 31.3844C49.7836 32.9384 54.188 33.7791 58.7451 32.2251C64.4733 30.2635 67.4265 24.1494 65.2625 18.4683C64.5691 16.6686 63.7466 14.9243 62.9206 13.1725L62.9206 13.1724L62.9205 13.1724C62.7761 12.866 62.6315 12.5594 62.4875 12.2523C62.3557 11.9695 62.0844 11.7426 61.8182 11.5198L61.8181 11.5198C61.7246 11.4415 61.6316 11.3637 61.5456 11.2842C61.2163 10.9716 60.873 10.6675 60.5288 10.3624C59.8349 9.74753 59.137 9.12907 58.5414 8.43096C57.7013 7.43741 57.7267 6.18911 58.465 5.11914C59.1779 4.07464 60.3235 3.81989 61.5201 4.02369C63.3786 4.3294 64.5751 5.47579 65.1861 7.18265C65.7717 8.83856 65.2116 10.2652 63.7605 11.5135C65.6699 13.093 66.3063 15.3603 66.8664 17.6021C67.0785 18.451 67.1924 19.3271 67.3066 20.2052V20.2053C67.4392 21.2247 67.5721 22.2468 67.8593 23.2322C68.3389 24.864 68.9144 26.4736 69.4905 28.0849C69.9847 29.4672 70.4794 30.8507 70.9143 32.2506C71.4792 34.0427 71.9993 35.8498 72.5191 37.6557L72.5193 37.6564C72.9599 39.1874 73.4003 40.7176 73.8675 42.237C74.1279 43.0838 74.4611 43.9097 74.794 44.7348L74.7941 44.735L74.7941 44.7352L74.7942 44.7354L74.7944 44.7357C74.9821 45.2012 75.1697 45.6663 75.3442 46.1347C75.9021 47.6164 77.1655 48.2836 78.4177 48.9449C78.6511 49.0681 78.8841 49.1911 79.112 49.3192C80.2831 49.9816 80.8941 50.8477 80.5886 52.2234C80.3086 53.5226 79.4685 54.3379 77.9155 54.2869C74.7331 54.1595 71.5763 53.8538 68.4194 53.5227C67.8848 53.4717 67.3247 52.9112 66.9428 52.4527C64.8043 49.8796 62.6912 47.2811 60.6036 44.6826C59.1524 42.8739 58.0832 40.8868 57.5231 38.6195C57.285 37.6865 56.7997 36.8 56.3199 35.9236C56.184 35.6753 56.0485 35.4278 55.9192 35.1803C55.7919 34.9255 55.4355 34.6962 55.1554 34.6453L54.9544 34.6054C53.3415 34.2846 51.737 33.9654 50.3437 35.3841C49.9891 35.7643 49.4075 35.968 48.9001 36.1457L48.8926 36.1483C48.0015 36.454 47.5942 37.0145 47.9252 37.8807C49.0996 41.0316 49.0109 44.2509 48.922 47.4775V47.4776C48.8779 49.0772 48.8338 50.6786 48.9435 52.2743C48.9888 52.8858 49.0743 53.4972 49.1598 54.1086C49.2666 54.8729 49.3735 55.6371 49.4018 56.4014C49.4272 56.9873 49.1726 57.828 48.7653 58.1337C45.3793 60.6813 41.586 61.1144 37.6908 59.7132C35.7559 58.9999 34.4575 57.5987 34.152 55.204C33.5665 50.2363 32.7773 45.2941 31.7589 40.4028C31.3922 38.5679 30.5096 36.8157 29.6499 35.1089L29.6498 35.1088L29.6498 35.1086L29.6497 35.1085C29.5545 34.9196 29.4597 34.7312 29.3658 34.5434C26.9218 29.6776 26.2344 24.6334 27.1 19.2326C27.8128 14.7489 28.7803 10.469 31.7589 6.92789C32.3733 6.20464 33.1031 5.58405 33.8299 4.96593L33.8301 4.96583L33.8301 4.96576L33.8302 4.96573C34.1273 4.71303 34.424 4.46074 34.7121 4.20201C34.7557 4.16465 34.8023 4.12881 34.8493 4.09263C34.9947 3.9808 35.1443 3.86574 35.2213 3.6925C31.3007 3.74345 27.7619 4.8389 24.2741 6.46934C21.0067 7.96874 19.1343 10.6427 17.2385 13.3503L17.2385 13.3503C16.8151 13.9549 16.3906 14.5612 15.9491 15.1565C15.7709 15.4112 15.7709 15.8443 15.7963 16.201C16.1702 19.7673 17.5443 23.0162 18.9157 26.2585L19.0041 26.4676C19.2769 27.0863 19.4198 27.77 19.5627 28.4537C19.6198 28.7272 19.677 29.0006 19.7424 29.2699C19.8952 29.9578 20.0479 30.6711 20.0989 31.3844C20.1092 31.5294 20.1205 31.6754 20.1318 31.8219C20.2041 32.7568 20.2784 33.7169 20.1243 34.6198C19.8188 36.2248 19.9461 36.7088 21.6009 36.9636C22.126 37.0161 22.6555 37.0686 23.1873 37.1214L23.2001 37.1227L23.208 37.1235L23.2139 37.1241C25.2517 37.3263 27.323 37.5318 29.3149 37.7533ZM41.5864 13.8348C40.1098 13.2234 39.4988 11.7712 39.2952 10.0644C39.066 8.20468 40.7463 5.88641 42.7066 5.19857C44.2596 4.66358 46.449 5.52975 47.3146 7.05828C47.8238 7.9754 48.0275 8.7142 46.9073 9.50394C45.6399 10.3917 44.4626 11.3955 43.1922 12.4786C42.6764 12.9184 42.1452 13.3713 41.5864 13.8348ZM46.4228 21.653C45.9646 23.6655 47.263 25.2705 48.8414 25.1431C48.9843 24.6873 49.121 24.2409 49.2557 23.8006C49.5051 22.9858 49.7481 22.192 50.0125 21.3982C50.0825 21.1997 50.1793 21.0066 50.2758 20.8139L50.2758 20.8139L50.2758 20.8138C50.3899 20.5861 50.5036 20.359 50.5726 20.1244C50.7763 19.3856 51.0054 18.4176 50.0634 18.1883C49.376 18.0354 48.2813 18.2647 47.8485 18.7488C47.1611 19.513 46.652 20.6085 46.4228 21.653ZM55.5105 18.8004C55.6242 18.6487 55.7288 18.4835 55.8319 18.3208C56.0749 17.9371 56.3088 17.5678 56.6307 17.4247C56.9616 17.2718 57.6745 17.5775 58.0309 17.8832C58.1094 17.9509 58.1884 18.0186 58.2674 18.0864L58.2674 18.0864C59.111 18.8098 59.9716 19.5479 60.5768 20.4563C60.9077 20.9913 60.7804 21.9848 60.5513 22.6472C60.3731 23.1312 59.7112 23.6407 59.202 23.7426C58.871 23.7936 58.3364 23.1822 58.0054 22.7746C57.4454 22.0867 56.9616 21.3734 56.4779 20.6091C56.2315 20.2744 56.0459 19.891 55.8285 19.4419L55.8285 19.4419C55.7315 19.2416 55.6283 19.0282 55.5105 18.8004ZM56.8457 27.9538L56.8604 27.9449C56.8531 27.9014 56.8438 27.8558 56.8342 27.8088C56.8101 27.6905 56.784 27.5629 56.784 27.4353C56.6482 27.4014 56.5124 27.3561 56.3767 27.3108C56.1051 27.2202 55.8336 27.1296 55.562 27.1296C54.5182 27.1296 53.4744 27.1551 52.456 27.2825C52.0487 27.3335 51.565 27.6137 51.3868 27.9194C51.2849 28.0977 51.6159 28.6582 51.8959 28.9129C52.0447 29.0617 52.2629 29.1149 52.4846 29.169C52.6425 29.2075 52.8021 29.2464 52.9398 29.3205C53.2198 29.4734 53.729 29.7791 53.7035 29.9065C53.6017 30.2631 53.3471 30.6198 53.0416 30.8745C52.8937 31.0061 52.6821 31.0527 52.4206 31.1104C52.277 31.142 52.1183 31.177 51.9469 31.2312C52.935 31.1664 53.8511 31.1015 54.7671 31.0367C55.2906 30.9996 55.8142 30.9626 56.3512 30.9255C56.0506 30.7918 55.7062 30.7513 55.3746 30.7123C54.6951 30.6323 54.0691 30.5587 53.9836 29.7027C55.0218 29.0692 55.9341 28.5113 56.8457 27.9538Z" fill="#20113D"/>
</g>
<defs>
<filter id="filter0_d" x="0" y="0" width="112" height="112" filterUnits="userSpaceOnUse" color-interpolation-filters="sRGB">
<feFlood flood-opacity="0" result="BackgroundImageFix"/>
<feColorMatrix in="SourceAlpha" type="matrix" values="0 0 0 0 0 0 0 0 0 0 0 0 0 0 0 0 0 0 127 0"/>
<feOffset dy="4"/>
<feGaussianBlur stdDeviation="2"/>
<feColorMatrix type="matrix" values="0 0 0 0 0 0 0 0 0 0 0 0 0 0 0 0 0 0 0.25 0"/>
<feBlend mode="normal" in2="BackgroundImageFix" result="effect1_dropShadow"/>
<feBlend mode="normal" in="SourceGraphic" in2="effect1_dropShadow" result="shape"/>
</filter>
</defs>
</svg>
