<svg width="30" height="30" viewBox="0 0 30 30" fill="none" xmlns="http://www.w3.org/2000/svg">
<path fill-rule="evenodd" clip-rule="evenodd" d="M29.5599 2.56066C30.1457 1.97487 30.1457 1.02512 29.5599 0.439337C28.9741 -0.146448 28.0243 -0.146445 27.4386 0.439343L14.9997 12.8783L2.56112 0.439648C1.97534 -0.14614 1.02559 -0.146143 0.4398 0.439642C-0.145987 1.02543 -0.14599 1.97517 0.439795 2.56096L12.8784 14.9996L0.439337 27.4387C-0.146448 28.0245 -0.146445 28.9743 0.439343 29.56C1.02513 30.1458 1.97488 30.1458 2.56066 29.56L14.9997 17.1209L27.439 29.5603C28.0248 30.1461 28.9745 30.1461 29.5603 29.5604C30.1461 28.9746 30.1461 28.0248 29.5603 27.439L17.121 14.9996L29.5599 2.56066Z" fill="white"/>
</svg>
